<svg xmlns="http://www.w3.org/2000/svg" viewBox="0 0 64 64" role="img" aria-label="Cicalino">
  <!-- Fondo redondo marca -->
  <rect width="64" height="64" rx="14" fill="#2536d4"/>
  <!-- Campana -->
  <g fill="none" stroke="#f4f1da" stroke-width="2.4" stroke-linecap="round" stroke-linejoin="round">
    <!-- Asa -->
    <path d="M32 10c0-2.2 1.8-4 4-4s4 1.8 4 4"/>
    <path d="M28 14h8"/>
    <!-- Cuerpo -->
    <path d="M20 26c0-8 5.4-14 12-14s12 6 12 14c0 10 3.5 14.5 5 17.5.4.8-.2 1.5-1.1 1.5H16.1c-.9 0-1.5-.7-1.1-1.5 1.5-3 5-7.5 5-17.5z"/>
    <!-- Borde inferior doble -->
    <path d="M16 45h32"/>
    <path d="M18 48h28"/>
    <!-- Badajo -->
    <circle cx="32" cy="52" r="2.2" fill="#f4f1da" stroke="none"/>
    <!-- Ojos cerrados (sonrisa) -->
    <path d="M25 28c1.2 1.4 2.8 1.4 4 0"/>
    <path d="M35 28c1.2 1.4 2.8 1.4 4 0"/>
    <!-- Boca -->
    <path d="M30 33.5c.6 1.2 2.4 1.2 3 0"/>
    <!-- Líneas de sonido -->
    <path d="M14 18l-3-2"/>
    <path d="M13 22l-3.5 0"/>
    <path d="M14 26l-3 2"/>
  </g>
</svg>
