<svg xmlns="http://www.w3.org/2000/svg" viewBox="220 226 695 871" fill="currentColor" role="img" aria-label="Chicharra Cicalino">
  <path d="M0 0 C2.875 1.375 2.875 1.375 4.875 4.375 C5.399 6.41 5.399 6.41 5.789 8.773 C5.939 9.662 6.089 10.552 6.244 11.469 C6.4 12.434 6.555 13.4 6.715 14.395 C6.882 15.404 7.05 16.413 7.223 17.452 C7.578 19.601 7.93 21.751 8.279 23.901 C8.8 27.11 9.332 30.318 9.865 33.525 C11.572 43.858 13.185 54.201 14.629 64.574 C14.756 65.476 14.884 66.378 15.015 67.307 C16.633 79.238 16.633 79.238 13.875 83.375 C11.375 83.688 11.375 83.688 8.875 83.375 C5.983 80.483 5.714 77.04 4.887 73.16 C4.703 72.325 4.519 71.491 4.33 70.631 C3.733 67.901 3.147 65.17 2.562 62.438 C2.158 60.564 1.753 58.69 1.348 56.816 C-0.928 46.23 -3.154 35.635 -5.188 25 C-5.391 23.965 -5.594 22.93 -5.804 21.864 C-8.308 8.281 -8.308 8.281 -7.125 2.375 C-4.45 -0.332 -3.828 -0.766 0 0 Z " fill="currentColor" transform="translate(479.125,250.625)"/>
  <path d="M0 0 C3.654 0.609 4.432 1.199 7.082 3.602 C7.433 3.919 7.433 3.919 9.208 5.528 C12.682 8.79 16.078 12.121 19.438 15.5 C20.106 16.165 20.774 16.829 21.463 17.514 C25.409 21.468 29.17 25.531 32.819 29.761 C34.775 32.025 36.792 34.23 38.812 36.438 C42.399 40.41 45.76 44.5 49.051 48.719 C50.893 50.973 52.772 53.13 54.73 55.281 C55.321 55.936 55.911 56.592 56.519 57.267 C57.691 58.563 58.875 59.848 60.071 61.122 C63.793 65.26 65.152 67.968 65.375 73.562 C63.188 74.75 63.188 74.75 60.375 75.562 C56.253 73.57 53.311 70.743 50.102 67.52 C49.615 67.032 49.128 66.545 48.626 66.043 C47.6 65.014 46.577 63.983 45.556 62.949 C44.017 61.392 42.47 59.843 40.922 58.295 C36.101 53.456 31.407 48.556 26.962 43.366 C24.249 40.283 21.308 37.435 18.375 34.562 C14.101 30.332 9.897 26.108 6.039 21.488 C4.734 19.978 3.36 18.529 1.961 17.105 C-5.209 9.702 -5.209 9.702 -5.312 5.562 C-4.452 1.809 -3.793 0.813 0 0 Z " fill="currentColor" transform="translate(381.625,278.4375)"/>
  <path d="M0 0 C0.525 0.184 0.525 0.184 3.185 1.115 C4.37 1.526 5.555 1.936 6.775 2.359 C8.033 2.809 9.291 3.258 10.548 3.709 C11.841 4.164 13.135 4.62 14.428 5.074 C22.186 7.818 29.898 10.678 37.548 13.709 C38.372 14.034 39.196 14.36 40.045 14.695 C45.605 16.954 45.605 16.954 47.861 19.209 C48.048 22.271 48.048 22.271 47.861 25.209 C46.861 26.209 46.861 26.209 43.622 26.494 C37.397 26.407 31.593 24.415 25.673 22.646 C24.446 22.287 23.219 21.927 21.955 21.556 C14.207 19.262 6.483 16.894 -1.202 14.396 C-2.069 14.119 -2.936 13.842 -3.83 13.556 C-4.227 13.424 -4.227 13.424 -6.237 12.752 C-6.923 12.525 -7.609 12.299 -8.315 12.065 C-10.443 11.067 -11.668 10.038 -13.139 8.209 C-13.529 5.091 -13.644 3.099 -12.077 0.334 C-8.322 -1.846 -4.062 -1.024 0 0 Z " fill="currentColor" transform="translate(363.139404296875,364.791015625)"/>
  <path d="M0 0 C7.098 3.79 13.143 1.877 20.637 0.306 C59.059 -7.665 102.246 6.769 134.853 26.899 C137.713 28.78 140.477 30.747 143.227 32.785 C147.837 36.115 150.231 36.565 155.953 36.453 C174.531 37.196 193.474 45.012 206.152 58.719 C220.086 75.454 227.96 95.186 226.438 117.172 C224.075 136.156 216.293 152.287 203.688 166.562 C202.464 167.512 201.233 168.454 199.996 169.387 C195.851 172.839 195.41 176.266 194.75 181.438 C193.598 188.317 191.887 194.226 188.688 200.438 C188.355 201.084 188.023 201.731 187.68 202.398 C186.125 205.287 184.515 207.764 182.375 210.258 C180.688 212.562 180.688 212.562 180.602 214.66 C182.192 217.446 184.294 218.427 187.062 220 C191.327 222.425 193.332 224.278 195.688 228.562 C197.659 229.938 199.664 231.265 201.688 232.562 C206.455 236.342 210.668 240.454 214.594 245.094 C216.239 247.033 217.905 248.943 219.594 250.844 C227.461 259.733 234.738 268.942 241.688 278.562 C242.427 279.585 243.167 280.608 243.929 281.661 C249.977 290.058 255.829 298.573 261.562 307.188 C261.996 307.838 262.429 308.488 262.875 309.157 C270.156 320.099 277.108 331.183 283.688 342.562 C284.618 344.15 285.549 345.737 286.48 347.324 C301.063 372.345 314.401 397.884 325.688 424.562 C326.147 425.646 326.607 426.73 327.081 427.846 C342.216 463.81 351.427 501.16 357.688 539.562 C357.867 540.607 358.046 541.652 358.231 542.728 C360.499 556.146 361.008 569.483 361.125 583.062 C361.137 583.864 361.15 584.665 361.162 585.49 C361.393 603.44 358.627 620.283 345.875 633.938 C334.888 644.081 322.669 647.338 307.891 646.848 C257.564 644.045 212.948 612.029 176.875 579.5 C176.614 579.267 176.614 579.267 175.293 578.09 C174.051 576.956 172.864 575.764 171.688 574.562 C171.688 573.903 171.688 573.242 171.688 572.562 C169.375 571.875 169.375 571.875 166.688 571.562 C151.361 583.264 147.639 627.13 144.938 645.688 C144.757 646.907 144.577 648.126 144.391 649.383 C144.794 653.704 146.822 655.401 149.688 658.562 C151.527 663.071 152.373 667.771 150.688 672.438 C146.976 678.237 141.583 680.237 135.141 681.922 C134.42 682.117 133.699 682.311 132.956 682.512 C130.621 683.131 128.281 683.725 125.938 684.312 C125.14 684.515 124.343 684.717 123.521 684.925 C109.17 688.503 91.36 692.773 77.113 687.152 C74.12 685.191 72.957 683.924 71.688 680.562 C71.519 675.42 72.327 672.495 75.5 668.438 C80.131 663.649 85.646 661.153 91.688 658.562 C92.079 658.392 92.079 658.392 94.058 657.528 C98.279 655.691 102.51 653.876 106.758 652.102 C107.112 651.953 107.112 651.953 108.907 651.202 C110.688 650.562 110.688 650.562 112.688 650.562 C112.543 649.348 112.399 648.134 112.25 646.883 C109.776 624.661 110.288 602.768 112.688 580.562 C111.983 580.482 111.279 580.401 110.553 580.317 C74.913 575.889 34.165 552.525 10.168 525.875 C8.688 524.562 8.688 524.562 5.688 524.562 C5.551 525.286 5.414 526.009 5.273 526.754 C4.725 529.382 4.069 531.925 3.312 534.5 C3.078 535.313 2.843 536.127 2.602 536.965 C1.688 539.562 1.688 539.562 0.273 542.344 C-1.618 546.182 -2.973 550.068 -4.312 554.125 C-4.436 554.486 -4.436 554.486 -5.062 556.314 C-7.277 562.963 -8.792 569.728 -10.312 576.562 C-10.896 579.094 -11.48 581.625 -12.066 584.156 C-12.519 586.129 -12.969 588.101 -13.42 590.074 C-13.723 591.4 -14.029 592.726 -14.336 594.051 C-19.797 617.646 -19.797 617.646 -19.312 625.562 C-17.875 627.687 -17.875 627.687 -16.312 629.562 C-14.663 634.51 -14.488 639.5 -16.438 644.375 C-22.091 650.97 -29.725 652.237 -37.791 653.998 C-40.481 654.6 -43.152 655.263 -45.828 655.926 C-57.921 658.776 -69.554 660.049 -81.938 660.062 C-82.606 660.067 -83.275 660.071 -83.964 660.076 C-99.249 660.118 -99.249 660.118 -105.812 654.375 C-107.475 651.258 -107.78 649.153 -107.086 645.672 C-104.053 637.401 -96.775 633.887 -89.26 630.29 C-82.949 627.428 -76.342 625.567 -69.688 623.688 C-68.339 623.295 -66.992 622.902 -65.645 622.508 C-55.976 619.691 -55.976 619.691 -51.312 618.562 C-51.343 617.969 -51.373 617.376 -51.404 616.765 C-52.753 589.961 -51.819 564.231 -47.375 537.75 C-47.311 537.37 -47.311 537.37 -46.99 535.445 C-45.562 526.98 -43.964 518.619 -41.861 510.29 C-41.32 507.597 -41.094 505.299 -41.312 502.562 C-42.93 500.195 -42.93 500.195 -45.188 497.688 C-50.873 491.032 -55.631 483.95 -60.312 476.562 C-60.71 475.942 -61.108 475.322 -61.519 474.683 C-75.109 453.317 -84.849 429.345 -93.312 405.562 C-93.667 404.568 -94.021 403.573 -94.385 402.548 C-102.781 378.551 -109.477 352.871 -112.312 327.562 C-112.363 327.117 -112.363 327.117 -112.616 324.861 C-115.128 301.522 -115.275 278.252 -110.68 255.133 C-110.199 251.766 -109.911 248.962 -110.312 245.562 C-112.231 243.565 -113.74 242.303 -116 240.812 C-117.198 239.96 -118.393 239.105 -119.586 238.246 C-120.203 237.809 -120.82 237.372 -121.456 236.921 C-124.468 234.717 -127.294 232.306 -130.125 229.875 C-130.671 229.409 -131.217 228.943 -131.779 228.462 C-133.294 227.166 -134.803 225.865 -136.312 224.562 C-137.052 223.924 -137.792 223.286 -138.555 222.629 C-140.484 220.951 -142.398 219.258 -144.312 217.562 C-145.183 216.808 -146.053 216.054 -146.949 215.277 C-147.853 214.485 -148.756 213.692 -149.688 212.875 C-150.104 212.512 -150.104 212.512 -152.211 210.676 C-154.2 208.675 -155.15 207.087 -156.312 204.562 C-157.637 203.878 -158.972 203.214 -160.312 202.562 C-161.492 201.419 -162.668 200.269 -163.816 199.094 C-165.47 197.401 -167.151 195.737 -168.836 194.074 C-180.978 182.034 -180.978 182.034 -185.594 176.559 C-187.391 174.471 -189.264 172.462 -191.147 170.452 C-196.124 165.126 -200.735 159.618 -205.184 153.845 C-208.731 149.255 -212.446 144.843 -216.262 140.475 C-218.649 137.697 -220.8 134.903 -222.77 131.812 C-227.552 124.34 -231.288 120.235 -240.117 117.633 C-243.45 116.516 -245.577 115.096 -248.375 113 C-254.227 109.016 -260.183 108.169 -267.02 106.976 C-274.678 105.607 -281.652 104.135 -286.5 97.625 C-287.468 93.976 -287.602 92.127 -286.312 88.562 C-282.03 83.967 -278.418 82.72 -272.312 81.562 C-274.588 77.28 -277.554 73.901 -280.789 70.332 C-283.468 67.221 -283.643 64.689 -283.605 60.602 C-283.15 57.431 -281.559 55.743 -279.312 53.562 C-275.1 51.456 -271.449 52.188 -267.137 53.609 C-262.904 55.239 -258.721 56.971 -254.539 58.727 C-252.312 59.562 -252.312 59.562 -250.312 59.562 C-250.642 58.511 -250.972 57.459 -251.312 56.375 C-252.841 50.114 -253.94 42.531 -251.438 36.43 C-249.316 33.541 -247.237 32.538 -243.875 31.438 C-238.77 31.617 -236.39 33.559 -232.781 37.039 C-229.007 41.102 -226.712 45.464 -224.488 50.523 C-223.312 52.562 -223.312 52.562 -220.312 53.562 C-219.549 52.799 -218.786 52.036 -218 51.25 C-217.113 50.363 -216.226 49.476 -215.312 48.562 C-214.879 47.985 -214.446 47.408 -214 46.812 C-211.103 44.667 -207.816 44.323 -204.312 44.562 C-200.831 46.636 -199.598 47.707 -198.312 51.562 C-198.215 54.116 -198.171 56.635 -198.188 59.188 C-198.188 59.547 -198.188 59.547 -198.191 61.369 C-198.219 65.162 -198.372 68.859 -198.875 72.625 C-199.319 76.619 -198.897 79.603 -198.312 83.562 C-198.405 84.629 -198.498 85.695 -198.594 86.793 C-199.316 96.151 -199.316 96.151 -196.547 100.047 C-193.905 102.382 -191.138 104.455 -188.312 106.562 C-186.056 108.553 -183.874 110.621 -181.688 112.688 C-176.967 117.064 -172.207 121.38 -167.312 125.562 C-166.396 126.346 -165.479 127.13 -164.535 127.938 C-152.384 138.288 -140.05 148.42 -127.566 158.366 C-123.856 161.323 -120.168 164.303 -116.5 167.312 C-115.631 168.024 -114.762 168.736 -113.867 169.469 C-112.141 170.883 -110.417 172.3 -108.695 173.719 C-95.383 184.562 -95.383 184.562 -90.312 184.562 C-90.59 183.584 -90.867 182.606 -91.152 181.598 C-95.013 167.734 -95.013 167.734 -95.312 160.562 C-95.352 159.739 -95.392 158.915 -95.434 158.066 C-95.689 147.696 -94.32 137.422 -90.801 127.648 C-89.97 124.101 -90.937 122.179 -92.801 119.117 C-93.403 118.233 -94.005 117.349 -94.625 116.438 C-104.156 101.75 -106.788 84.818 -103.473 67.668 C-99.809 51.512 -92.207 37.711 -82.312 24.562 C-82.062 24.225 -82.062 24.225 -80.797 22.52 C-76.425 17.03 -70.84 12.827 -65.312 8.562 C-64.484 7.918 -63.655 7.273 -62.801 6.609 C-45.23 -6.406 -19.305 -12.563 0 0 Z M-71.133 30.801 C-72.312 32.562 -72.312 32.562 -72.312 35.562 C-69.098 36.546 -66.406 36.552 -63.062 36.375 C-57.611 36.346 -53.655 37.175 -49.312 40.562 C-45.29 44.976 -43.182 49.082 -43.062 55.125 C-43.037 55.91 -43.011 56.695 -42.984 57.504 C-43.093 58.183 -43.201 58.863 -43.312 59.562 C-46.312 61.562 -46.312 61.562 -48.84 61.492 C-51.312 60.562 -51.312 60.562 -52.754 58.383 C-53.124 57.493 -53.494 56.604 -53.875 55.688 C-55.469 51.905 -56.666 49.605 -60.312 47.562 C-66.553 46.785 -71.807 49.545 -77.051 52.602 C-79.312 53.562 -79.312 53.562 -81.418 53.023 C-82.043 52.871 -82.668 52.719 -83.312 52.562 C-86.552 54.707 -87.304 57.859 -88.438 61.438 C-88.77 62.466 -89.103 63.495 -89.445 64.555 C-93.227 77.673 -92.563 91.972 -87.312 104.562 C-87.157 104.94 -87.157 104.94 -86.367 106.848 C-85.312 108.562 -85.312 108.562 -82.312 109.562 C-79.047 106.393 -76.148 103.165 -73.375 99.562 C-65.52 89.884 -56.159 81.76 -46.21 74.298 C-35.33 66.118 -25.215 56.889 -15.312 47.562 C-14.821 47.105 -14.329 46.647 -13.823 46.176 C-7.637 40.389 -1.664 34.496 1.688 26.562 C1.688 25.243 1.688 23.923 1.688 22.562 C-2.007 21.331 -4.518 21.918 -8.312 22.562 C-9.329 17.933 -9.15 14.218 -8.312 9.562 C-31.725 -0.125 -55.626 13.186 -71.133 30.801 Z M20.688 16.562 C20.316 16.722 20.316 16.722 18.434 17.531 C16.688 18.562 16.688 18.562 16.035 20.594 C15.988 21.001 15.988 21.001 15.75 23.062 C14.362 31.428 10.651 38.081 4.824 44.188 C3.688 45.562 3.688 45.562 3.688 47.562 C3.093 47.83 2.498 48.098 1.886 48.374 C-0.335 49.575 -1.737 50.77 -3.484 52.574 C-4.062 53.164 -4.64 53.753 -5.235 54.361 C-5.838 54.984 -6.441 55.608 -7.062 56.25 C-11.978 61.245 -16.902 66.099 -22.312 70.562 C-23.116 71.232 -23.919 71.901 -24.746 72.59 C-28.691 75.847 -32.659 79.068 -36.707 82.195 C-57.879 98.562 -57.879 98.562 -62.312 105.562 C-62.416 106.573 -62.519 107.584 -62.625 108.625 C-62.852 109.594 -63.079 110.564 -63.312 111.562 C-64.22 111.975 -65.127 112.387 -66.062 112.812 C-70.985 115.463 -72.201 119.551 -74.312 124.562 C-74.685 125.42 -75.058 126.277 -75.441 127.16 C-81.931 142.654 -83.515 162.681 -77.312 178.562 C-77.054 179.24 -76.796 179.917 -76.53 180.615 C-72.484 191.038 -67.926 199.307 -60.312 207.562 C-59.56 208.54 -58.807 209.517 -58.031 210.523 C-55.041 214.126 -51.441 216.467 -47.5 218.938 C-47.128 219.174 -47.128 219.174 -45.247 220.37 C-37.863 224.982 -30.222 228.936 -22.312 232.562 C-21.288 233.033 -20.263 233.504 -19.207 233.988 C-11.126 237.511 -2.781 240.158 5.688 242.562 C6.348 242.752 7.009 242.942 7.69 243.138 C51.514 255.422 102.183 247.476 141.688 225.562 C142.932 224.895 144.177 224.229 145.422 223.562 C160.736 215.235 171.594 205.617 178.688 189.562 C178.688 188.243 178.688 186.923 178.688 185.562 C174.943 184.314 173.774 185.029 170.125 186.375 C155.019 191.597 141.149 191.824 125.688 187.562 C125.226 187.46 125.226 187.46 122.891 186.941 C112.864 184.609 103.758 180.108 96.688 172.562 C96.401 172.286 96.401 172.286 94.949 170.887 C82.738 158.191 78.114 140.925 78.201 123.76 C78.822 103.343 87.182 81.141 101.688 66.562 C104.297 64.215 106.942 61.916 109.602 59.625 C111.582 57.667 112.495 56.386 113.438 53.812 C115.771 47.744 120.987 45.141 126.688 42.562 C126.523 40.793 126.523 40.793 125.688 38.562 C110.792 26.61 90.991 19.887 72.688 15.562 C71.958 15.385 71.229 15.207 70.477 15.023 C60.187 12.61 49.921 12.243 39.375 12.125 C38.104 12.103 36.833 12.08 35.523 12.057 C34.323 12.06 33.123 12.063 31.887 12.066 C30.813 12.065 29.738 12.063 28.632 12.061 C25.007 12.678 23.386 14.132 20.688 16.562 Z M139.562 45.75 C138.694 46.177 137.825 46.603 136.93 47.043 C134.448 48.725 133.897 49.893 132.688 52.562 C131.697 53.222 130.707 53.882 129.688 54.562 C129.421 55.341 129.154 56.12 128.879 56.922 C127.234 60.567 124.982 61.692 121.625 63.812 C107.194 73.358 99.221 86.014 92.816 101.859 C91.688 104.562 91.688 104.562 90.688 105.562 C87.549 123.079 87.876 142.231 97.625 157.562 C98.632 158.906 99.652 160.24 100.688 161.562 C100.878 161.862 100.878 161.862 101.84 163.379 C107.984 172.154 120.449 176.384 130.5 178.562 C148.171 181.406 167.148 178.42 181.938 167.75 C183.205 166.708 184.454 165.644 185.688 164.562 C186.498 163.882 187.309 163.201 188.145 162.5 C202.765 149.874 211.616 133.95 213.5 114.625 C214.349 98.052 208.47 80.642 197.34 68.125 C183.735 55.26 168.001 50.394 149.688 48.562 C149.523 47.903 149.523 47.903 148.688 44.562 C144.95 43.146 143.05 43.975 139.562 45.75 Z M-237.312 54.562 C-237.642 54.728 -237.642 54.728 -239.312 55.562 C-239.246 55.877 -239.246 55.877 -238.91 57.469 C-236.685 68.253 -236.685 68.253 -236.312 73.562 C-236.972 74.553 -237.632 75.543 -238.312 76.562 C-245.94 76.562 -251.335 73.833 -257.902 70.27 C-259.679 69.316 -261.494 68.433 -263.312 67.562 C-263.642 67.727 -263.642 67.727 -265.312 68.562 C-265.312 69.553 -265.312 70.543 -265.312 71.562 C-263.768 72.925 -263.768 72.925 -261.629 74.305 C-260.866 74.814 -260.104 75.323 -259.318 75.848 C-257.696 76.903 -256.071 77.956 -254.443 79.004 C-254.061 79.26 -254.061 79.26 -252.129 80.555 C-251.422 81.012 -250.715 81.47 -249.987 81.941 C-247.81 84.049 -247.573 85.585 -247.312 88.562 C-248.453 91.888 -249.279 92.54 -252.312 94.562 C-252.312 95.553 -252.312 96.543 -252.312 97.562 C-243.688 102.644 -235.506 107.266 -225.887 110.199 C-222.445 112.022 -221.873 114.057 -220.312 117.562 C-218.402 119.879 -218.402 119.879 -216.25 122.125 C-212.777 125.872 -209.569 129.732 -206.5 133.812 C-198.75 144.066 -190.229 153.655 -181.539 163.117 C-179.611 165.235 -177.735 167.385 -175.875 169.562 C-172.557 173.391 -168.973 176.934 -165.366 180.487 C-162.659 183.169 -160.087 185.905 -157.625 188.812 C-154.862 192.037 -151.905 194.781 -148.668 197.523 C-146.283 199.588 -143.977 201.719 -141.674 203.873 C-136.275 208.919 -130.786 213.767 -125.016 218.391 C-123.112 219.92 -121.228 221.475 -119.359 223.047 C-118.877 223.452 -118.877 223.452 -116.438 225.5 C-116.006 225.865 -116.006 225.865 -113.82 227.715 C-111.371 229.52 -109.179 230.581 -106.312 231.562 C-103.878 229.397 -102.78 227.679 -101.812 224.578 C-101.565 223.807 -101.317 223.036 -101.062 222.242 C-100.815 221.44 -100.567 220.639 -100.312 219.812 C-99.815 218.233 -99.316 216.655 -98.812 215.078 C-98.57 214.313 -98.328 213.548 -98.078 212.76 C-97.358 210.692 -96.504 208.772 -95.562 206.797 C-94.215 203.31 -93.901 201.988 -95.312 198.562 C-100.501 192.616 -107.249 188.013 -113.652 183.465 C-117.634 180.617 -121.467 177.589 -125.312 174.562 C-126.728 173.457 -128.145 172.353 -129.562 171.25 C-130.305 170.671 -131.048 170.092 -131.812 169.496 C-133.639 168.083 -135.473 166.681 -137.312 165.285 C-143.571 160.531 -149.67 155.644 -155.641 150.533 C-158.876 147.765 -162.154 145.072 -165.5 142.438 C-169.809 139.022 -173.895 135.407 -177.957 131.703 C-179.99 129.856 -182.046 128.045 -184.125 126.25 C-188.3 122.607 -192.428 118.905 -196.436 115.078 C-198.932 112.696 -201.269 110.592 -204.148 108.668 C-207.258 106.417 -208.639 105.067 -210.312 101.562 C-211.261 94.098 -210.822 86.544 -210.342 79.055 C-210.312 76.562 -210.312 76.562 -211.312 73.562 C-214.312 72.562 -214.312 72.562 -217.188 73.688 C-220.312 74.562 -220.312 74.562 -222.719 73.625 C-226.289 70.786 -227.89 67.455 -229.938 63.438 C-230.692 61.972 -231.455 60.511 -232.227 59.055 C-232.556 58.409 -232.886 57.763 -233.225 57.097 C-234.312 55.562 -234.312 55.562 -237.312 54.562 Z M-79.312 207.562 C-83.461 211.021 -84.93 214.825 -86.75 219.75 C-87.051 220.55 -87.352 221.351 -87.661 222.175 C-106.333 272.71 -102.03 324.785 -88.688 376.062 C-88.398 377.197 -88.109 378.332 -87.812 379.502 C-87.531 380.543 -87.25 381.584 -86.961 382.656 C-86.838 383.119 -86.838 383.119 -86.216 385.459 C-86.067 385.806 -86.067 385.806 -85.312 387.562 C-84.322 387.893 -83.332 388.222 -82.312 388.562 C-81.653 388.232 -80.993 387.903 -80.312 387.562 C-80.342 386.641 -80.371 385.719 -80.402 384.77 C-80.681 375.963 -80.947 367.156 -81.198 358.348 C-81.328 353.823 -81.462 349.298 -81.609 344.774 C-83.202 295.263 -83.202 295.263 -78.125 271.875 C-77.914 270.862 -77.702 269.85 -77.484 268.806 C-74.495 255.083 -70.631 241.111 -64.16 228.586 C-63.312 226.562 -63.312 226.562 -63.312 222.562 C-64.887 220.887 -64.887 220.887 -67 219.25 C-69.853 216.916 -72.073 214.753 -74.125 211.688 C-76.312 208.562 -76.312 208.562 -79.312 207.562 Z M172.688 226.562 C172.028 226.893 171.368 227.222 170.688 227.562 C171.363 231.595 172.607 235.184 174.062 239 C177.352 248.049 179.788 256.735 179.68 266.395 C179.714 282.189 179.714 282.189 183.358 286.572 C187.638 290.006 192.489 292.234 197.467 294.474 C202.514 296.948 206.491 300.88 210.688 304.562 C211.435 305.144 212.183 305.725 212.953 306.324 C218.714 310.901 222.694 316.338 224.094 323.699 C224.526 332.859 220.092 338.744 214.234 345.266 C212.688 347.562 212.688 347.562 212.688 349.66 C214.024 352.202 215.534 353.18 217.938 354.75 C218.398 355.057 218.398 355.057 220.727 356.609 C221.215 356.932 221.215 356.932 223.688 358.562 C225.565 359.872 227.44 361.184 229.312 362.5 C236.678 367.621 244.168 372.557 251.637 377.523 C257.827 381.643 263.998 385.788 270.125 390 C270.787 390.454 271.448 390.908 272.13 391.376 C276.556 394.431 276.556 394.431 277.688 395.562 C277.028 395.892 277.028 395.892 273.688 397.562 C273.688 398.222 273.688 398.882 273.688 399.562 C267.094 396.14 260.954 392.441 254.918 388.113 C252.236 386.249 249.719 384.775 246.688 383.562 C246.028 383.893 245.368 384.222 244.688 384.562 C245.271 390.043 246.249 395.217 247.727 400.531 C248.143 402.072 248.56 403.614 248.977 405.155 C249.195 405.955 249.413 406.756 249.638 407.581 C253.305 421.07 256.738 434.585 259.688 448.25 C259.965 449.535 260.243 450.82 260.53 452.145 C260.659 452.752 260.659 452.752 261.312 455.824 C261.556 456.966 261.8 458.109 262.051 459.285 C262.466 461.422 262.821 463.571 263.105 465.728 C264.071 472.913 264.071 472.913 267.25 476.262 C267.817 476.59 267.817 476.59 270.688 478.25 C271.33 478.638 271.972 479.025 272.634 479.424 C274.114 480.315 275.603 481.19 277.1 482.053 C281.14 484.41 285.101 486.893 289.077 489.357 C292.442 491.44 295.816 493.509 299.191 495.574 C304.941 499.098 310.669 502.655 316.375 506.25 C317.122 506.718 317.868 507.187 318.638 507.669 C320.665 508.951 322.681 510.249 324.688 511.562 C325.365 512.005 326.043 512.448 326.741 512.904 C328.438 514.055 330.07 515.302 331.688 516.562 C332.125 519.375 332.125 519.375 331.688 521.562 C325.281 521.234 320.702 517.825 315.438 514.5 C314.447 513.885 313.456 513.271 312.436 512.637 C310.306 511.315 308.179 509.99 306.053 508.661 C302.58 506.496 299.096 504.352 295.605 502.215 C294.429 501.494 293.253 500.774 292.077 500.053 C291.79 499.877 291.79 499.877 290.339 498.988 C287.609 497.315 284.88 495.639 282.152 493.961 C281.671 493.666 281.671 493.666 279.238 492.171 C277.147 490.852 275.136 489.48 273.129 488.039 C272.323 487.552 271.518 487.065 270.688 486.562 C269.697 486.892 268.707 487.223 267.688 487.562 C268.249 494.62 269.073 501.611 270.046 508.623 C272.744 528.21 274.289 547.847 275.688 567.562 C275.788 568.973 275.89 570.382 275.991 571.792 C276.224 575.049 276.456 578.306 276.688 581.562 C291.292 588.233 305.956 594.312 321.121 599.59 C326.377 601.422 331.54 603.446 336.688 605.562 C336.358 606.882 336.027 608.202 335.688 609.562 C328.252 609.149 321.713 607.606 314.688 605.188 C314.178 605.016 314.178 605.016 311.598 604.146 C302.29 600.93 293.246 597.138 284.242 593.157 C283.211 592.704 282.18 592.251 281.117 591.785 C280.212 591.38 279.307 590.976 278.375 590.559 C275.688 589.562 275.688 589.562 272.536 589.111 C269.382 588.504 268.733 587.898 266.688 585.562 C264.8 584.45 264.8 584.45 262.645 583.391 C262.237 583.186 262.237 583.186 260.176 582.15 C259.293 581.709 258.41 581.267 257.5 580.812 C240.218 571.955 223.824 561.731 208.688 549.562 C206.656 548.028 204.615 546.507 202.562 545 C201.694 544.359 200.825 543.719 199.93 543.059 C197.688 541.562 197.688 541.562 194.688 540.562 C194.461 540.181 194.461 540.181 193.312 538.25 C191.467 535.198 189.511 533.714 186.688 531.562 C182.997 528.066 179.691 524.298 176.367 520.461 C175.066 518.99 173.701 517.576 172.312 516.188 C147.363 491.238 129.457 459.23 116.688 426.562 C116.378 425.776 116.069 424.99 115.75 424.18 C114.819 421.792 113.905 419.398 113 417 C112.706 416.223 112.412 415.446 112.109 414.645 C110.649 410.655 109.447 406.736 108.562 402.578 C105.994 390.66 105.994 390.66 102.098 387.387 C99.062 385.938 99.062 385.938 95.902 384.801 C91.278 383.019 87.812 380.072 83.965 377.004 C83.213 376.528 82.462 376.053 81.688 375.562 C80.697 375.893 79.707 376.222 78.688 376.562 C82.743 424.824 109.906 475.418 138.368 513.782 C139.774 515.679 141.166 517.585 142.559 519.492 C149.209 528.539 156.213 537.184 163.688 545.562 C164.161 546.094 164.635 546.626 165.123 547.173 C176.755 560.149 188.838 572.941 202.688 583.562 C203.973 584.576 205.258 585.59 206.543 586.605 C236.589 610.176 278.652 637.102 318.688 632.562 C328.649 630.425 334.97 626.526 340.938 618.375 C344.079 613.416 345.528 608.277 346.688 602.562 C346.871 601.696 347.054 600.83 347.242 599.938 C353.86 549.781 336.626 492.266 319.688 445.562 C319.349 444.612 319.01 443.661 318.661 442.681 C315.027 432.646 312.237 425.141 302.688 419.562 C300.984 418.271 299.296 416.958 297.625 415.625 C296.871 415.038 296.117 414.452 295.34 413.848 C294.795 413.424 294.249 412.999 293.688 412.562 C294.018 410.913 294.347 409.263 294.688 407.562 C295.471 407.913 296.255 408.264 297.062 408.625 C297.929 408.934 298.795 409.244 299.688 409.562 C300.347 409.232 301.007 408.903 301.688 408.562 C301.193 402.469 298.497 397.656 295.75 392.312 C295.253 391.335 294.757 390.358 294.245 389.351 C289.612 380.294 284.75 371.385 279.688 362.562 C279.158 361.637 278.628 360.711 278.082 359.757 C260.471 329.076 241.265 299.314 219.156 271.652 C217.662 269.782 216.179 267.902 214.719 266.004 C208.564 258.062 201.651 250.794 194.688 243.562 C194.103 242.954 193.518 242.346 192.916 241.72 C189.292 238.017 185.601 234.772 181.438 231.688 C180.422 230.927 179.406 230.166 178.359 229.383 C175.688 227.562 175.688 227.562 172.688 226.562 Z M-53.312 234.562 C-54.515 237.343 -55.598 240.092 -56.625 242.938 C-56.934 243.79 -57.243 244.643 -57.562 245.521 C-77.111 300.666 -70.099 358.1 -48.312 411.562 C-48.053 412.264 -47.793 412.966 -47.526 413.689 C-44.975 419.795 -41.14 422.169 -35.375 425.125 C-34.501 425.589 -33.626 426.053 -32.725 426.531 C-1.443 442.562 33.218 444.169 66.688 434.562 C70.406 433.346 74.063 432.034 77.688 430.562 C77.078 423.806 75.375 417.674 73.438 411.188 C70.791 402.048 68.587 392.911 66.812 383.562 C66.711 383.029 66.711 383.029 66.198 380.331 C65.351 375.717 64.625 371.176 64.242 366.5 C63.574 361.759 63.574 361.759 60.688 359.562 C56.641 359.801 52.966 361.045 49.135 362.327 C22.343 371.293 -8.377 370.164 -34 357.859 C-43.439 352.917 -55.265 346.634 -61.312 337.562 C-60.938 335.375 -60.938 335.375 -60.312 333.562 C-56.101 334.088 -54.028 335.333 -50.875 338.125 C-28.892 356.325 -2.091 360.946 25.688 359.562 C35.849 358.592 45.863 356.279 55.688 353.562 C56.445 351.445 56.445 351.445 56.688 348.562 C55.402 346.342 54.108 344.462 52.562 342.438 C36.552 319.865 26.024 291.625 20.688 264.562 C20.59 264.075 20.59 264.075 20.094 261.609 C20.027 261.272 20.027 261.272 19.688 259.562 C18.765 259.343 17.842 259.124 16.891 258.898 C-5.429 253.514 -26.977 247.012 -46.723 235.031 C-49.683 233.353 -50.316 233.064 -53.312 234.562 Z M150.879 235.371 C150.143 235.785 149.407 236.198 148.649 236.624 C147.857 237.078 147.066 237.532 146.25 238 C115.487 254.862 83.255 260.699 48.597 261.273 C47.826 261.286 47.055 261.3 46.26 261.314 C44.796 261.339 43.331 261.358 41.867 261.373 C36.908 261.452 36.908 261.452 34.688 262.562 C35.103 270.027 36.649 276.627 39.062 283.688 C39.412 284.719 39.761 285.75 40.121 286.812 C52.295 321.694 72.387 358.592 106.713 375.736 C107.365 376.05 108.016 376.364 108.688 376.688 C108.993 376.835 108.993 376.835 110.539 377.584 C114.385 379.316 117.484 380.04 121.688 379.562 C124.125 377.5 124.125 377.5 126.688 374.562 C127.766 373.516 128.85 372.475 129.938 371.438 C132.813 368.575 135.349 365.549 137.875 362.375 C141.888 357.362 146.24 352.873 150.878 348.447 C152.182 347.186 153.439 345.878 154.688 344.562 C154.688 343.903 154.688 343.243 154.688 342.562 C155.306 342.294 155.925 342.026 156.562 341.75 C158.688 340.562 158.688 340.562 160.688 337.562 C160.688 336.572 160.688 335.582 160.688 334.562 C160.13 334.276 159.572 333.99 158.998 333.696 C147.314 327.684 135.852 321.491 124.688 314.562 C124.173 314.26 124.173 314.26 121.57 312.73 C113.231 307.724 106.761 302.378 104.125 292.707 C102.415 284.323 105.145 276.83 109.438 269.625 C115.021 264.507 121.838 262.222 129.363 262.348 C141.38 263.458 152.811 269.564 163.508 274.742 C164.227 275.013 164.946 275.284 165.688 275.562 C166.347 275.233 167.007 274.903 167.688 274.562 C168.502 261.942 165.607 245.323 158.688 234.562 C155.414 233.244 153.872 233.629 150.879 235.371 Z M117.688 278.562 C114.96 282.653 114.969 285.762 115.688 290.562 C118.385 298.354 124.893 301.656 131.688 305.562 C133.341 306.591 134.995 307.619 136.649 308.648 C148.777 316.12 161.552 322.549 174.316 328.855 C177.688 330.562 177.688 330.562 178.688 331.562 C178.834 334.929 178.759 337.347 177.688 340.562 C176.993 340.798 176.298 341.034 175.582 341.277 C171.193 343.226 168.563 346.603 165.375 350.125 C163.951 351.67 162.526 353.214 161.102 354.758 C160.738 355.155 160.738 355.155 158.896 357.165 C155.384 360.978 151.814 364.736 148.25 368.5 C143.994 373.006 139.787 377.539 135.688 382.188 C133.071 385.139 130.388 387.768 127.375 390.312 C124.034 393.159 121.662 395.614 119.688 399.562 C120.027 403.607 121.29 405.728 124 408.688 C124.594 409.35 125.189 410.013 125.801 410.695 C130.719 415.562 130.719 415.562 133.688 415.562 C133.688 416.222 133.688 416.882 133.688 417.562 C134.974 418.26 136.267 418.945 137.562 419.625 C138.282 420.008 139.001 420.391 139.742 420.785 C140.384 421.042 141.026 421.298 141.688 421.562 C142.348 421.232 143.007 420.903 143.688 420.562 C143.688 419.572 143.688 418.582 143.688 417.562 C139.465 414.562 139.465 414.562 136.688 414.562 C137.348 412.582 138.007 410.602 138.688 408.562 C143.437 409.438 143.437 409.438 145.688 410.562 C152.221 410.796 152.221 410.796 154.688 409.562 C154.688 408.572 154.688 407.582 154.688 406.562 C154.283 406.441 154.283 406.441 152.238 405.828 C140.437 402.127 140.437 402.127 137.688 398.562 C137.244 395.271 137.209 394.386 138.688 391.562 C141.668 388.419 145.15 386.042 148.688 383.562 C150.005 382.633 151.323 381.703 152.641 380.773 C154.812 379.244 156.985 377.717 159.162 376.194 C165.577 371.692 171.759 366.95 177.86 362.034 C179.857 360.426 181.862 358.828 183.867 357.23 C185.287 356.092 186.706 354.952 188.125 353.812 C188.775 353.294 189.426 352.775 190.096 352.24 C198.357 345.557 208.646 337.118 211.875 326.75 C211.573 321.608 208.856 318.369 205.125 315 C189.642 301.678 171.068 292.069 152.812 283.188 C151.766 282.675 150.72 282.163 149.642 281.635 C127.145 270.864 127.145 270.864 117.688 278.562 Z M185.688 369.562 C184.945 370.328 184.202 371.094 183.438 371.883 C180.023 375.21 176.33 377.984 172.5 380.812 C171.776 381.354 171.052 381.895 170.307 382.453 C164.984 386.414 164.984 386.414 162.688 387.562 C163.267 391.473 164.994 393.723 167.688 396.562 C172.86 399.562 172.86 399.562 175.688 399.562 C175.708 400.573 175.729 401.584 175.75 402.625 C177.17 412.07 190.318 419.15 197.273 424.582 C199.688 426.562 199.688 426.562 201.523 428.441 C204.566 431.424 207.919 433.929 211.312 436.5 C212.055 437.065 212.798 437.63 213.563 438.212 C221.168 443.969 228.863 449.596 236.644 455.113 C237.958 456.045 239.27 456.982 240.579 457.922 C242.23 459.107 243.896 460.273 245.562 461.438 C246.015 461.756 246.015 461.756 248.305 463.367 C251.097 464.768 251.819 464.453 254.688 463.562 C253.185 453.417 250.95 443.481 248.625 433.5 C248.43 432.661 248.236 431.823 248.035 430.959 C245.262 419.024 242.403 407.11 239.394 395.232 C239.009 393.713 238.627 392.193 238.247 390.672 C237.717 388.557 237.177 386.446 236.633 384.336 C236.329 383.144 236.025 381.952 235.711 380.724 C234.124 375.823 232.213 372.557 227.957 369.625 C227.236 369.122 226.515 368.62 225.771 368.102 C225.022 367.594 224.272 367.086 223.5 366.562 C223.135 366.309 223.135 366.309 221.287 365.023 C204.918 353.714 200.953 356.704 185.688 369.562 Z M-70.312 395.562 C-73.016 396.914 -73.627 398.768 -74.695 401.504 C-79.532 417.638 -65.982 439.946 -58.613 453.66 C-56.566 457.395 -54.485 461.109 -52.341 464.789 C-51.438 466.346 -50.572 467.923 -49.711 469.504 C-48.312 471.562 -48.312 471.562 -45.312 472.562 C-44.983 472.398 -44.983 472.398 -43.312 471.562 C-43.373 470.908 -43.434 470.253 -43.496 469.578 C-43.538 469.122 -43.538 469.122 -43.75 466.812 C-43.831 465.931 -43.912 465.049 -43.996 464.141 C-44.177 462.091 -44.322 460.037 -44.36 457.98 C-44.694 449.254 -47.553 442.523 -51.312 434.75 C-52.507 432.212 -53.688 429.667 -54.867 427.121 C-55.162 426.488 -55.457 425.856 -55.76 425.204 C-59.055 418.07 -61.834 410.743 -64.508 403.356 C-64.838 402.47 -65.168 401.585 -65.508 400.672 C-65.786 399.898 -66.065 399.124 -66.352 398.327 C-67.312 396.562 -67.312 396.562 -70.312 395.562 Z M173.688 415.562 C170.188 417.188 170.188 417.188 168.465 418.398 C165.708 420.204 162.87 420.783 159.688 421.562 C159.77 422.8 159.852 424.038 159.938 425.312 C159.916 428.325 159.781 429.406 158.188 432.062 C153.013 435.167 146.749 433.674 141.133 432.344 C137.239 431.1 133.625 429.312 129.973 427.488 C129.219 427.183 128.464 426.877 127.688 426.562 C127.358 426.727 127.358 426.727 125.688 427.562 C126.343 432.497 128.374 436.621 130.5 441.062 C130.895 441.89 131.291 442.717 131.698 443.57 C141.468 463.666 153.151 482.568 167.688 499.562 C168.658 500.718 169.628 501.875 170.598 503.031 C186.411 521.804 186.411 521.804 191.688 523.562 C192.347 523.232 193.007 522.903 193.688 522.562 C193.685 521.877 193.683 521.192 193.681 520.486 C193.661 513.971 193.645 507.456 193.636 500.94 C193.631 497.592 193.623 494.244 193.612 490.896 C193.6 487.031 193.594 483.166 193.59 479.301 C193.585 478.121 193.58 476.941 193.574 475.726 C193.574 467.961 193.982 460.295 194.688 452.562 C195.347 452.562 196.007 452.562 196.688 452.562 C198.488 447.16 198.653 441.037 196.5 435.688 C191.773 427.356 182.281 419.569 173.688 415.562 Z M-34.312 433.562 C-34.643 433.727 -34.643 433.727 -36.312 434.562 C-35.919 440.923 -32.73 445.793 -29.625 451.188 C-29.335 451.694 -29.335 451.694 -27.869 454.258 C-20.051 467.711 -11.098 480.3 -1.375 492.438 C-1.121 492.756 -1.121 492.756 0.162 494.365 C6.659 502.276 12.175 506.333 22.188 508.875 C23.099 509.126 24.01 509.376 24.949 509.635 C52.55 517.063 82.703 512.83 108.688 501.562 C109.678 500.903 110.668 500.243 111.688 499.562 C110.993 495.882 109.42 492.986 107.625 489.715 C106.997 488.561 106.369 487.407 105.722 486.218 C105.556 485.915 105.556 485.915 104.715 484.378 C88.232 454.232 88.232 454.232 83.637 440.18 C82.688 438.562 82.688 438.562 80.856 437.892 C77.231 437.341 74.083 439.017 70.75 440.312 C38.526 452.187 5.664 450.635 -25.707 437.098 C-26.794 436.632 -27.88 436.167 -29 435.688 C-29.973 435.257 -30.946 434.826 -31.949 434.383 C-32.729 434.112 -33.509 433.841 -34.312 433.562 Z M199.688 440.562 C199.7 441.147 199.713 441.732 199.725 442.335 C199.884 449.786 200.037 457.236 200.188 464.688 C200.212 465.874 200.236 467.06 200.26 468.283 C200.562 483.379 200.813 498.466 200.65 513.565 C200.626 516.566 200.64 519.562 200.688 522.562 C200.697 523.558 200.707 524.553 200.717 525.578 C200.921 530.289 201.108 532.807 204.031 536.621 C205.073 537.406 206.114 538.191 207.188 539 C207.764 539.445 208.341 539.89 208.935 540.348 C210.828 541.789 212.754 543.176 214.688 544.562 C216.002 545.541 217.316 546.52 218.629 547.5 C228.5 554.75 238.881 561.076 249.452 567.242 C251.47 568.434 253.462 569.658 255.445 570.906 C256.495 571.556 257.544 572.206 258.625 572.875 C259.5 573.428 260.376 573.981 261.277 574.551 C264.219 575.785 265.65 575.291 268.688 574.562 C264.769 524.208 264.769 524.208 262.266 505.23 C261.624 500.327 261.302 495.45 261.191 490.504 C260.066 483.936 258.282 478.276 252.773 474.199 C251.219 473.191 249.647 472.209 248.062 471.25 C246.347 470.146 244.634 469.039 242.922 467.93 C242.051 467.375 241.18 466.82 240.283 466.249 C236.195 463.593 232.253 460.745 228.312 457.875 C227.572 457.339 226.831 456.803 226.067 456.251 C220.398 452.133 214.862 447.861 209.387 443.488 C202.979 438.917 202.979 438.917 199.688 440.562 Z M-21.312 489.562 C-24.232 492.012 -25.025 494.194 -25.996 497.84 C-26.282 498.9 -26.568 499.96 -26.862 501.052 C-27.155 502.19 -27.448 503.328 -27.75 504.5 C-28.058 505.677 -28.366 506.854 -28.683 508.067 C-32.548 523.073 -35.334 538.032 -37.5 553.375 C-37.667 554.555 -37.834 555.735 -38.007 556.95 C-40.292 573.865 -40.564 590.751 -40.789 607.789 C-40.829 610.656 -40.88 613.523 -40.934 616.391 C-40.942 617.269 -40.95 618.147 -40.959 619.051 C-40.976 619.864 -40.992 620.676 -41.01 621.513 C-41.02 622.225 -41.03 622.937 -41.041 623.67 C-41.312 625.562 -41.312 625.562 -43.312 628.562 C-45.363 628.776 -47.414 628.98 -49.468 629.146 C-54.823 629.93 -59.856 631.888 -64.942 633.691 C-66.871 634.374 -68.805 635.04 -70.74 635.705 C-77.177 637.953 -83.313 640.317 -89.312 643.562 C-89.312 644.882 -89.312 646.202 -89.312 647.562 C-80.074 652.182 -65.026 647.425 -55.5 645.25 C-54.063 644.937 -52.627 644.625 -51.189 644.314 C-32.75 640.281 -32.75 640.281 -27.312 637.562 C-27.693 634.291 -27.991 632.027 -29.886 629.288 C-31.765 625.698 -31.379 623.64 -30.828 619.648 C-30.738 618.974 -30.647 618.299 -30.554 617.604 C-30.246 615.378 -29.907 613.158 -29.562 610.938 C-29.449 610.171 -29.335 609.404 -29.218 608.614 C-25.343 582.694 -18.237 557.476 -9.333 532.855 C-8.665 531.005 -7.999 529.155 -7.336 527.302 C-6.716 525.574 -6.086 523.85 -5.445 522.129 C-3.901 517.857 -2.607 514.162 -3.312 509.562 C-4.816 507.359 -4.816 507.359 -6.875 505.312 C-10.702 501.322 -13.761 497.162 -16.77 492.531 C-18.312 490.562 -18.312 490.562 -21.312 489.562 Z M106.25 509.25 C99.228 512.919 92.424 515.705 84.688 517.562 C83.453 517.86 82.218 518.158 80.945 518.465 C65.073 521.923 48.049 521.871 32.102 518.902 C29.688 518.562 29.688 518.562 27.688 519.562 C28.354 524.798 32.222 526.852 36.145 529.938 C42.373 534.613 48.814 538.947 55.398 543.104 C56.869 544.041 58.329 544.997 59.773 545.975 C72.181 554.339 83.943 555.331 98.688 553.562 C103.044 552.713 106.681 551.423 110.688 549.562 C111.596 549.328 112.505 549.093 113.441 548.852 C116.676 547.825 118.31 547.018 120.688 544.562 C124.233 536.896 126.585 526.979 125.688 518.562 C124.078 515.289 124.078 515.289 121.938 512.188 C121.241 511.149 120.545 510.11 119.828 509.039 C115.234 503.724 111.646 506.279 106.25 509.25 Z M136.688 536.562 C134.688 537.562 134.688 537.562 133.774 540.217 C133.621 540.805 133.621 540.805 132.848 543.781 C132.681 544.423 132.514 545.064 132.342 545.725 C131.8 547.835 131.273 549.948 130.75 552.062 C130.57 552.782 130.39 553.501 130.205 554.242 C126.892 567.586 124.838 580.856 123.688 594.562 C123.592 595.456 123.496 596.35 123.397 597.271 C122.679 604.677 122.64 612.01 122.695 619.445 C122.703 620.515 122.711 621.584 122.719 622.686 C122.756 627.162 122.798 631.639 122.859 636.115 C122.901 639.413 122.925 642.71 122.945 646.008 C122.964 647.023 122.983 648.039 123.002 649.085 C123.003 649.555 123.003 649.555 123.012 651.93 C123.022 652.755 123.032 653.579 123.042 654.429 C122.601 657.081 121.769 657.916 119.688 659.562 C117.596 660.572 117.596 660.572 115.191 661.469 C114.305 661.808 113.418 662.147 112.504 662.496 C111.575 662.848 110.645 663.2 109.688 663.562 C105.987 665.031 102.304 666.541 98.625 668.062 C97.677 668.44 96.729 668.818 95.752 669.207 C95.302 669.395 95.302 669.395 93.027 670.344 C92.216 670.674 91.406 671.005 90.57 671.346 C88.688 672.562 88.688 672.562 87.916 674.701 C87.841 675.315 87.765 675.93 87.688 676.562 C99.931 682.684 124.244 672.236 136.688 668.562 C137.347 668.233 138.007 667.903 138.688 667.562 C139 665.375 139 665.375 138.688 662.562 C137.862 661.903 137.038 661.243 136.188 660.562 C132.199 655.777 133.337 650.582 133.688 644.562 C134.192 639.797 134.932 635.096 135.75 630.375 C135.805 630.053 135.805 630.053 136.084 628.421 C139.508 608.522 145.12 589.389 151.843 570.366 C152.213 569.302 152.583 568.237 152.965 567.141 C153.297 566.206 153.63 565.272 153.972 564.31 C154.769 561.248 154.93 558.714 154.688 555.562 C152.93 552.816 152.93 552.816 150.562 550.125 C149.743 549.18 148.923 548.235 148.078 547.262 C147.289 546.371 146.5 545.48 145.688 544.562 C144.561 543.188 143.436 541.814 142.312 540.438 C139.688 537.562 139.688 537.562 136.688 536.562 Z M107.438 558.5 C106.545 558.88 105.653 559.261 104.734 559.652 C104.059 559.953 103.383 560.253 102.688 560.562 C102.688 561.553 102.688 562.543 102.688 563.562 C107.459 565.185 110.771 565.85 115.688 564.562 C116.688 563.562 116.688 563.562 116.75 560.5 C116.729 559.531 116.709 558.561 116.688 557.562 C112.997 556.192 110.979 556.962 107.438 558.5 Z " fill="currentColor" transform="translate(531.3125,385.4375)"/>
  <path d="M0 0 C3.312 0.875 3.312 0.875 4.312 1.875 C4.353 3.875 4.355 5.875 4.312 7.875 C5.897 7.76 7.48 7.633 9.062 7.5 C9.944 7.43 10.826 7.361 11.734 7.289 C14.32 6.874 16.004 6.051 18.312 4.875 C21.382 5.063 23.494 5.208 25.914 7.18 C27.461 9.054 27.969 10.488 28.625 12.812 C29.773 16.035 30.427 16.981 33.062 19.438 C37.063 21.207 39.117 20.963 43.312 19.875 C43.663 19.689 43.663 19.689 45.438 18.75 C48.079 17.517 49.6 17.947 52.312 18.875 C54.663 22.401 54.976 23.725 54.312 27.875 C52.485 30.028 50.692 31.257 48.312 32.875 C47.653 32.875 46.993 32.875 46.312 32.875 C46.087 34.128 45.861 35.381 45.629 36.672 C44.316 42.549 41.878 47.732 39.25 53.125 C38.759 54.138 38.268 55.152 37.762 56.196 C30.201 71.486 19.606 88.554 3.438 95.812 C-1.987 97.592 -7.517 97.282 -12.738 94.965 C-18.018 91.63 -20.355 86.909 -22.27 81.113 C-25.755 62.446 -19.191 40.887 -9.812 24.812 C-6.923 19.452 -7.469 14.178 -7.902 8.293 C-7.555 2.768 -5.693 -0.193 0 0 Z M6.145 20.363 C2.233 22.451 1.172 24.665 -0.234 28.754 C-0.688 30.875 -0.688 30.875 -0.688 33.875 C2.312 34.875 2.312 34.875 4.477 33.984 C5.289 33.536 6.101 33.087 6.938 32.625 C11.611 30.158 16.254 28.378 21.312 26.875 C20.615 23.958 19.907 21.444 18.312 18.875 C13.792 17.368 10.55 18.845 6.145 20.363 Z M-1.688 47.875 C-2.362 48.48 -3.036 49.084 -3.73 49.707 C-10.282 55.907 -11.641 61.907 -11.938 70.812 C-11.887 75.583 -11.025 78.719 -8.688 82.875 C-5.688 84.875 -5.688 84.875 -3 84.875 C12.899 80.075 21.471 61.256 28.812 47.75 C28.988 47.43 28.988 47.43 29.875 45.812 C31.395 42.956 32.312 41.161 32.312 37.875 C20.781 32.109 6.71 40.332 -1.688 47.875 Z " fill="currentColor" transform="translate(519.6875,463.125)"/>
  <path d="M0 0 C6.965 6.719 12.489 15.126 12.938 25 C12.625 28.812 12.625 28.812 11.5 30.812 C8.643 32.336 6.807 32.332 3.625 31.812 C0.654 29.104 -0.693 26.145 -2.188 22.5 C-5.371 15.069 -10.103 9.854 -17.48 6.504 C-25.817 3.462 -33.268 4.706 -41.375 7.812 C-42.823 8.563 -44.262 9.333 -45.688 10.125 C-48.441 11.568 -49.103 11.847 -52.312 11.438 C-54.375 9.812 -54.375 9.812 -55.375 7 C-55.375 3.115 -54.834 1.809 -52.375 -1.188 C-37.701 -14.553 -14.466 -12.236 0 0 Z " fill="currentColor" transform="translate(705.375,484.1875)"/>
</svg>
